<?xml version="1.0" encoding="utf-8"?>
<!-- Generator: Adobe Illustrator 23.0.1, SVG Export Plug-In . SVG Version: 6.00 Build 0)  -->
<svg version="1.1" id="圖層_1" xmlns="http://www.w3.org/2000/svg" xmlns:xlink="http://www.w3.org/1999/xlink" x="0px" y="0px"
	 viewBox="0 0 16.7 16.7" style="enable-background:new 0 0 16.7 16.7;" xml:space="preserve">
<style type="text/css">
	.st0{fill:#FAE9B0;}
	.st1{fill:#434243;}
</style>
<circle class="st0" cx="8.4" cy="8.4" r="8.2"/>
<g>
	<path class="st1" d="M6.4,12.3c-0.7-0.4-1.2-1-1.5-1.6S4.3,9.2,4.3,8.4c0-0.9,0.2-1.7,0.6-2.3s0.9-1.2,1.6-1.6s1.5-0.6,2.3-0.6
		c0.4,0,0.8,0,1.1,0.1c0.3,0.1,0.6,0.2,0.8,0.3c0.2,0.1,0.4,0.2,0.4,0.3l-0.6,1.2c-0.5-0.4-1.1-0.6-1.9-0.6c-0.6,0-1.1,0.1-1.5,0.4
		S6.4,6.1,6.1,6.7C5.9,7.2,5.8,7.7,5.8,8.4c0,0.6,0.1,1.2,0.3,1.7c0.2,0.5,0.6,0.9,1,1.2c0.4,0.3,1,0.4,1.6,0.4c0.7,0,1.4-0.2,2-0.6
		l0.4,1.1c-0.2,0.2-0.5,0.3-1,0.5c-0.5,0.1-0.9,0.2-1.4,0.2C7.8,12.9,7,12.7,6.4,12.3z"/>
</g>
</svg>
